<svg width="672" height="73" fill="none" xmlns="http://www.w3.org/2000/svg"><path d="M.694 58L11.727 2.839h23.53c10.492 0 14.877 4.282 13.154 12.845-1.235 6.275-5.928 10.762-14.08 13.463 7.792 1.362 10.968 5.67 9.528 12.922C41.724 52.689 34.909 58 23.415 58H.695zm22.99-3.472c8.898 0 14.17-4.114 15.816-12.343 1.466-7.278-3.369-10.917-14.504-10.917H21.91l.54-2.739c13.09-1.157 20.354-5.349 21.795-12.575 1.285-6.429-2.032-9.643-9.953-9.643h-19.21L5.44 54.528h18.246zM51.999 58l8.1-40.503h3.28l-2.122 14.427C66.81 22.306 72.726 17.497 79 17.497l-.81 4.012c-6.12 0-11.997 4.667-17.628 14.002L56.047 58h-4.05zM94.7 2.839l-.926 4.629h-4.822l.926-4.63H94.7zm-3.318 14.658L83.282 58h-4.05l8.1-40.503h4.05zM96.435 58l8.101-40.503h3.279l-1.659 12.112c6.352-8.075 12.91-12.112 19.673-12.112 7.535 0 10.518 3.922 8.949 11.765L129.031 58h-4.051l5.748-28.738c1.08-5.426-.861-8.139-5.825-8.139-6.66 0-13.192 4.282-19.595 12.845L100.486 58h-4.05zm79.232-35.951c-3.343-.617-6.815-.926-10.415-.926-9.644 0-15.571 5.568-17.783 16.703-2.186 10.878.026 16.317 6.635 16.317 6.275 0 11.984-3.266 17.127-9.798l4.436-22.296zM172.542 58c-1.954 9.772-8.884 14.658-20.791 14.658-4.989 0-9.284-.643-12.884-1.928l.695-3.472c3.677 1.286 7.997 1.928 12.96 1.928 9.155 0 14.479-3.728 15.97-11.186l1.929-9.644C165.072 54.786 159.363 58 153.294 58c-9.206 0-12.472-6.7-9.798-20.097 2.726-13.604 10.325-20.406 22.797-20.406 5.478 0 10.145.553 14.003 1.659L172.542 58zm28.623-55.161l-.926 4.629h-4.822l.926-4.63h4.822zm-3.318 14.658L189.747 58h-4.051l8.101-40.503h4.05zM202.9 58l8.101-40.503h3.279l-1.659 12.112c6.352-8.075 12.91-12.112 19.673-12.112 7.535 0 10.518 3.922 8.949 11.765L235.496 58h-4.051l5.748-28.738c1.08-5.426-.862-8.139-5.825-8.139-6.66 0-13.192 4.282-19.596 12.845L206.951 58H202.9zm79.232-35.951c-3.343-.617-6.815-.926-10.415-.926-9.644 0-15.571 5.568-17.783 16.703-2.186 10.878.026 16.317 6.635 16.317 6.275 0 11.984-3.266 17.127-9.798l4.436-22.296zM279.007 58c-1.954 9.772-8.885 14.658-20.791 14.658-4.989 0-9.284-.643-12.884-1.928l.694-3.472c3.678 1.286 7.998 1.928 12.961 1.928 9.155 0 14.478-3.728 15.97-11.186l1.929-9.644C271.537 54.786 265.828 58 259.759 58c-9.207 0-12.473-6.7-9.798-20.097 2.726-13.604 10.325-20.406 22.797-20.406 5.478 0 10.145.553 14.003 1.659L279.007 58zm62.799 0h-3.279l1.158-9.644C334.336 54.786 328.627 58 322.558 58c-9.207 0-12.473-6.7-9.798-20.097 2.726-13.604 10.325-20.406 22.797-20.406 3.755 0 7.136.257 10.145.772l3.086-15.43h4.05L341.806 58zm3.125-35.951c-3.343-.617-6.815-.926-10.415-.926-9.644 0-15.572 5.568-17.783 16.703-2.186 10.878.026 16.317 6.635 16.317 6.274 0 11.983-3.266 17.127-9.798l4.436-22.296zm43.511 0c-3.343-.617-6.814-.926-10.415-.926-9.643 0-15.571 5.568-17.782 16.703-2.186 10.878.025 16.317 6.634 16.317 6.275 0 11.984-3.266 17.127-9.798l4.436-22.296zM385.318 58h-3.279l1.157-9.644C377.847 54.786 372.138 58 366.069 58c-9.206 0-12.472-6.7-9.798-20.097 2.726-13.604 10.326-20.406 22.798-20.406 5.477 0 10.145.553 14.002 1.659L385.318 58zm21.64-47.06h2.469l-.579 6.557h11.765l-.694 3.472h-11.032l-5.131 25.575c-1.054 5.323.373 7.984 4.282 7.984h5.169L412.513 58h-5.092c-6.583 0-9.142-3.639-7.676-10.916l7.213-36.145zm49.221 11.109c-3.343-.617-6.815-.926-10.415-.926-9.644 0-15.571 5.568-17.783 16.703-2.186 10.878.026 16.317 6.635 16.317 6.274 0 11.983-3.266 17.127-9.798l4.436-22.296zM453.054 58h-3.279l1.158-9.644C445.584 54.786 439.875 58 433.806 58c-9.207 0-12.473-6.7-9.798-20.097 2.726-13.604 10.325-20.406 22.797-20.406 5.478 0 10.145.553 14.003 1.659L453.054 58zm40.927-47.06h2.469l-.578 6.557h11.765l-.695 3.472H495.91l-5.13 25.575c-1.055 5.323.373 7.984 4.282 7.984h5.168L499.536 58h-5.092c-6.583 0-9.142-3.639-7.676-10.916l7.213-36.145zm21.178 26.654c-2.315 11.547 1.221 17.32 10.608 17.32 9.386 0 15.236-5.773 17.551-17.32 2.263-11.34-1.299-17.011-10.685-17.011-9.387 0-15.211 5.67-17.474 17.011zm-4.089.154c2.751-13.758 10.171-20.637 22.257-20.637 12.087 0 16.754 6.88 14.003 20.637-2.752 13.733-10.171 20.6-22.258 20.6-12.035 0-16.702-6.867-14.002-20.6zm77.765-34.91L577.803 58h-4.05l11.032-55.161h4.05zm18.362 0l-.926 4.63h-4.822l.926-4.63h4.822zm-3.318 14.66L595.779 58h-4.05l8.1-40.503h4.05zm17.204 0h15.237l-.694 3.47h-15.237L613.6 54.915c-1.646 8.178-4.796 13.938-9.451 17.281l-2.391-2.507c3.652-2.186 6.249-7.11 7.792-14.774l7.869-39.384C619.373 5.732 625.134.833 634.7.833c3.318 0 6.224.514 8.718 1.543l-.694 3.472c-2.341-1.029-5.259-1.543-8.757-1.543-6.84 0-11.019 3.767-12.536 11.302l-.348 1.89zm37.572 0c9.823 0 14.028 3.522 12.614 10.568-1.466 7.304-6.957 10.956-16.472 10.956h-14.658c-2.057 10.337 1.749 15.506 11.418 15.506 5.375 0 10.209-1.8 14.504-5.4l-.771 3.857C661.046 56.328 656.237 58 650.863 58c-12.37 0-17.179-6.905-14.427-20.714 2.649-13.193 10.055-19.789 22.219-19.789zm-17.783 17.897h14.581c6.866 0 10.801-2.481 11.804-7.444.926-4.706-2.173-7.06-9.297-7.06-9 0-14.696 4.835-17.088 14.505z" fill="#FFFCFC"/></svg>