<svg width="786" height="71" fill="none" xmlns="http://www.w3.org/2000/svg"><path d="M.21 56.045L11.244.884h4.436l27.774 49.22L53.289.885h3.665L45.92 56.044h-3.278L13.982 5.437 3.875 56.045H.211zm64.304-20.406C62.2 47.186 65.736 52.96 75.122 52.96c9.386 0 15.237-5.773 17.551-17.32 2.263-11.34-1.298-17.011-10.685-17.011-9.386 0-15.21 5.67-17.474 17.011zm-4.089.154c2.752-13.758 10.171-20.637 22.258-20.637 12.086 0 16.754 6.88 14.002 20.638-2.752 13.732-10.17 20.598-22.257 20.598-12.035 0-16.703-6.866-14.003-20.599zm51.883-26.809h2.468l-.578 6.558h11.765l-.694 3.472h-11.033l-5.13 25.574c-1.054 5.324.373 7.985 4.282 7.985h5.169l-.695 3.472h-5.091c-6.584 0-9.143-3.639-7.677-10.917l7.214-36.144zm50.493-8.1l-.926 4.629h-4.821l.925-4.63h4.822zm-3.317 14.658L152 52.959c-1.645 8.178-4.796 13.938-9.45 17.281l-2.392-2.507c3.652-2.186 6.249-7.11 7.792-14.774l7.484-37.417h4.05zm45.749 0l-8.101 40.503h-3.278l1.658-12.112c-6.352 8.075-13.166 12.112-20.444 12.112-7.021 0-9.747-3.922-8.178-11.765l5.748-28.738h4.05L170.94 44.28c-1.08 5.426.605 8.139 5.054 8.139 7.174 0 13.964-4.282 20.367-12.845l4.822-24.032h4.05zm3.896 38.574l.771-3.857c4.192 1.543 8.461 2.314 12.807 2.314 8.512 0 13.308-2.7 14.388-8.1.875-4.372-1.838-6.558-8.139-6.558h-5.015c-8.486 0-12.009-3.6-10.569-10.8 1.543-7.716 7.934-11.573 19.171-11.573 4.321 0 8.603.643 12.846 1.929l-.772 3.857c-4.192-1.543-8.448-2.314-12.768-2.314-8.538 0-13.347 2.7-14.427 8.1-.925 4.63 1.505 6.944 7.291 6.944h5.015c9 0 12.806 3.471 11.418 10.415-1.543 7.715-7.921 11.572-19.133 11.572-4.346 0-8.641-.643-12.884-1.929zm49.375-45.132h2.469l-.579 6.558h11.765l-.694 3.472h-11.032l-5.131 25.574c-1.054 5.324.373 7.985 4.282 7.985h5.169l-.694 3.472h-5.092c-6.584 0-9.142-3.639-7.676-10.917l7.213-36.144zm36.568 6.558h4.629l7.406 36.993 22.296-36.993h4.629l-25.343 40.503h-4.706l-8.911-40.503zM348.729.884l-.926 4.629h-4.822l.926-4.63h4.822zm-3.317 14.658l-8.101 40.503h-4.05l8.1-40.503h4.051zm4.667 38.574l.772-3.857c4.191 1.543 8.46 2.314 12.806 2.314 8.512 0 13.308-2.7 14.388-8.1.875-4.372-1.838-6.558-8.139-6.558h-5.014c-8.487 0-12.01-3.6-10.57-10.8 1.543-7.716 7.934-11.573 19.172-11.573 4.32 0 8.602.643 12.845 1.929l-.772 3.857c-4.191-1.543-8.447-2.314-12.768-2.314-8.537 0-13.346 2.7-14.426 8.1-.926 4.63 1.504 6.944 7.29 6.944h5.015c9 0 12.806 3.471 11.418 10.415-1.543 7.715-7.921 11.572-19.133 11.572-4.346 0-8.641-.643-12.884-1.929zm80.813-38.574l-8.1 40.503h-3.279l1.658-12.112c-6.352 8.075-13.166 12.112-20.444 12.112-7.02 0-9.746-3.922-8.178-11.765l5.748-28.738h4.05L396.6 44.28c-1.08 5.426.604 8.139 5.053 8.139 7.175 0 13.964-4.282 20.367-12.845l4.822-24.032h4.05zM451.028.884l-11.032 55.16h-4.051L446.978.885h4.05zm18.361 0l-.926 4.629h-4.821l.925-4.63h4.822zm-3.317 14.658l-8.101 40.503h-4.05l8.1-40.503h4.051zm11.996 0h28.931l-.694 3.472-31.67 33.56h24.186l-.694 3.47h-28.931l.695-3.47 31.592-33.56h-24.109l.694-3.472zM525.553.884l-.926 4.629h-4.821l.925-4.63h4.822zm-3.317 14.658l-8.101 40.503h-4.05l8.101-40.503h4.05zm5.053 40.503l8.101-40.503h3.278l-1.658 12.112c6.352-8.075 12.909-12.112 19.673-12.112 7.534 0 10.518 3.922 8.949 11.765l-5.748 28.738h-4.05l5.748-28.738c1.08-5.426-.862-8.139-5.825-8.139-6.661 0-13.193 4.282-19.596 12.845l-4.822 24.032h-4.05zm79.232-35.951c-3.344-.617-6.815-.926-10.416-.926-9.643 0-15.571 5.567-17.782 16.703-2.186 10.877.025 16.316 6.635 16.316 6.274 0 11.983-3.265 17.126-9.797l4.437-22.296zm-3.125 35.95c-1.954 9.773-8.885 14.66-20.792 14.66-4.988 0-9.283-.644-12.883-1.93l.694-3.471c3.677 1.285 7.998 1.928 12.961 1.928 9.155 0 14.478-3.728 15.97-11.186l1.928-9.644c-5.349 6.43-11.058 9.644-17.127 9.644-9.206 0-12.472-6.7-9.797-20.097 2.726-13.604 10.325-20.406 22.797-20.406 5.478 0 10.145.553 14.002 1.659l-7.753 38.844zm62.799 0h-3.279l1.157-9.643c-5.349 6.43-11.058 9.644-17.127 9.644-9.206 0-12.472-6.7-9.798-20.097 2.726-13.604 10.325-20.406 22.798-20.406 3.754 0 7.136.257 10.145.772l3.086-15.43h4.05l-11.032 55.16zm3.124-35.95c-3.343-.617-6.814-.926-10.415-.926-9.643 0-15.571 5.567-17.782 16.703-2.186 10.877.025 16.316 6.634 16.316 6.275 0 11.984-3.265 17.127-9.797l4.436-22.296zm43.512 0c-3.343-.617-6.815-.926-10.415-.926-9.644 0-15.571 5.567-17.783 16.703-2.186 10.877.026 16.316 6.635 16.316 6.275 0 11.984-3.265 17.127-9.797l4.436-22.296zm-3.124 35.95h-3.279l1.157-9.643c-5.349 6.43-11.058 9.644-17.127 9.644-9.206 0-12.472-6.7-9.798-20.097 2.726-13.604 10.325-20.406 22.798-20.406 5.477 0 10.145.553 14.002 1.659l-7.753 38.844zm21.64-47.06h2.468l-.578 6.558h11.765l-.694 3.472h-11.033l-5.13 25.574c-1.054 5.324.373 7.985 4.282 7.985h5.169l-.695 3.472h-5.091c-6.584 0-9.143-3.639-7.677-10.917l7.214-36.144zm49.22 11.11c-3.343-.617-6.814-.926-10.415-.926-9.643 0-15.571 5.567-17.782 16.703-2.186 10.877.025 16.316 6.634 16.316 6.275 0 11.984-3.265 17.127-9.797l4.436-22.296zm-3.124 35.95h-3.279l1.157-9.643c-5.349 6.43-11.058 9.644-17.127 9.644-9.206 0-12.472-6.7-9.798-20.097 2.726-13.604 10.326-20.406 22.798-20.406 5.477 0 10.145.553 14.002 1.659l-7.753 38.844z" fill="#FFFCFC"/></svg>