<svg width="218" height="54" viewBox="0 0 218 54" fill="none" xmlns="http://www.w3.org/2000/svg"><g id="tab-resume"><rect id="Rectangle 13" x=".5" y=".5" width="217" height="53" rx="26.5" stroke="#E1DCC1"/><path id="Resume" d="M45.673 12.5h1.634c2.964 0 5.244.785 6.84 2.356 1.621 1.57 2.432 3.813 2.432 6.726 0 1.672-.406 3.205-1.216 4.598a8.797 8.797 0 01-3.23 3.306c-1.368.785-2.876 1.178-4.522 1.178h-.266L57.149 41h-1.634l-8.626-9.044V41h-1.216V12.5zm1.9 17.062c1.444 0 2.761-.355 3.952-1.064a7.777 7.777 0 002.812-2.85c.684-1.216 1.026-2.559 1.026-4.028 0-2.559-.697-4.535-2.09-5.928-1.368-1.393-3.332-2.09-5.89-2.09h-.494v15.96h.684zm24.931 10.83c1.317 0 2.571-.342 3.762-1.026a8.727 8.727 0 002.964-2.812v1.938c-.937 1.039-1.963 1.799-3.078 2.28-1.115.456-2.381.684-3.8.684-1.57 0-3.053-.418-4.446-1.254a9.715 9.715 0 01-3.306-3.344c-.81-1.393-1.216-2.875-1.216-4.446 0-1.697.405-3.217 1.216-4.56a8.516 8.516 0 013.306-3.192c1.419-.76 2.99-1.14 4.712-1.14 2.635 0 4.877 1.039 6.726 3.116l-11.932 11.78c.836.684 1.647 1.19 2.432 1.52.785.304 1.672.456 2.66.456zM64.6 32.298c0 2.103.697 3.901 2.09 5.396l11.134-11.058c-.836-.735-1.647-1.254-2.432-1.558-.785-.33-1.723-.494-2.812-.494-1.545 0-2.926.342-4.142 1.026a7.296 7.296 0 00-2.812 2.736c-.684 1.165-1.026 2.483-1.026 3.952zm26.107 9.12c-1.216 0-2.293-.203-3.23-.608-.938-.43-1.609-.975-2.014-1.634v-2.014c.481 1.09 1.14 1.9 1.976 2.432.836.507 1.9.76 3.192.76 1.241 0 2.242-.38 3.002-1.14.76-.785 1.14-1.786 1.14-3.002 0-1.039-.215-1.837-.646-2.394-.43-.583-1.127-1.165-2.09-1.748l-1.444-.836a74.188 74.188 0 01-2.356-1.482 5.156 5.156 0 01-1.216-1.254c-.304-.481-.456-1.039-.456-1.672 0-1.013.355-1.824 1.064-2.432.71-.608 1.634-.912 2.774-.912 1.393 0 2.558.317 3.496.95v1.672c-.785-1.039-1.913-1.558-3.382-1.558-.81 0-1.47.203-1.976.608-.507.405-.76.925-.76 1.558 0 .557.152 1.051.456 1.482.304.405.722.785 1.254 1.14.557.355 1.47.887 2.736 1.596 1.292.735 2.242 1.495 2.85 2.28.608.76.912 1.76.912 3.002 0 1.57-.52 2.837-1.558 3.8-1.013.937-2.255 1.406-3.724 1.406zm20.013 0c-2.407 0-4.269-.659-5.586-1.976-1.292-1.317-1.938-3.18-1.938-5.586V23.9h1.216v9.956c0 2.077.544 3.686 1.634 4.826 1.114 1.115 2.672 1.672 4.674 1.672 1.216 0 2.33-.266 3.344-.798a6.197 6.197 0 002.394-2.318c.582-.988.874-2.115.874-3.382V23.9h1.216V41h-1.216v-3.192c-.583 1.064-1.457 1.938-2.622 2.622-1.166.659-2.496.988-3.99.988zM126.766 23.9h1.216v2.584c1.166-2.001 3.04-3.002 5.624-3.002 1.242 0 2.318.355 3.23 1.064.912.684 1.546 1.723 1.9 3.116.33-1.241 1.052-2.242 2.166-3.002 1.14-.785 2.42-1.178 3.838-1.178 1.85 0 3.281.545 4.294 1.634 1.014 1.064 1.52 2.584 1.52 4.56V41h-1.216V29.676c0-1.596-.418-2.85-1.254-3.762-.81-.912-1.887-1.368-3.23-1.368a5.45 5.45 0 00-2.812.76 5.493 5.493 0 00-2.052 1.976 5.255 5.255 0 00-.76 2.774V41h-1.216V30.36c0-1.824-.43-3.243-1.292-4.256-.861-1.039-1.976-1.558-3.344-1.558-.912 0-1.786.228-2.622.684a5.906 5.906 0 00-2.014 1.862 4.432 4.432 0 00-.76 2.508V41h-1.216V23.9zm40.316 16.492c1.318 0 2.572-.342 3.762-1.026a8.72 8.72 0 002.964-2.812v1.938c-.937 1.039-1.963 1.799-3.078 2.28-1.114.456-2.381.684-3.8.684-1.57 0-3.052-.418-4.446-1.254a9.715 9.715 0 01-3.306-3.344c-.81-1.393-1.216-2.875-1.216-4.446 0-1.697.406-3.217 1.216-4.56a8.522 8.522 0 013.306-3.192c1.419-.76 2.99-1.14 4.712-1.14 2.635 0 4.877 1.039 6.726 3.116l-11.932 11.78c.836.684 1.647 1.19 2.432 1.52.786.304 1.672.456 2.66.456zm-7.904-8.094c0 2.103.697 3.901 2.09 5.396l11.134-11.058c-.836-.735-1.646-1.254-2.432-1.558-.785-.33-1.722-.494-2.812-.494-1.545 0-2.926.342-4.142 1.026a7.3 7.3 0 00-2.812 2.736c-.684 1.165-1.026 2.483-1.026 3.952z" fill="#E1DCC1"/></g></svg>