<svg width="158" height="54" viewBox="0 0 158 54" fill="none" xmlns="http://www.w3.org/2000/svg"><g id="tab-work"><rect id="Rectangle 13" x=".5" y=".5" width="157" height="53" rx="26.5" stroke="#E1DCC1"/><g id="Work" fill="#E1DCC1"><path d="M58.118 41.494l-6.004-13.946-6.08 13.946L33.532 12.5h1.33l11.21 25.916 5.396-12.388L45.616 12.5h1.292l5.32 12.274L57.586 12.5h1.178l-5.928 13.68 5.358 12.35L69.442 12.5h1.33L58.118 41.494zM81.174 41.608c-1.723 0-3.281-.418-4.675-1.254a9.289 9.289 0 01-3.267-3.382 9.341 9.341 0 01-1.178-4.598c0-1.621.392-3.129 1.177-4.522a9.089 9.089 0 013.269-3.306c1.393-.836 2.938-1.254 4.635-1.254 1.672 0 3.192.418 4.56 1.254a8.712 8.712 0 013.269 3.306 9.057 9.057 0 011.177 4.522c0 1.697-.38 3.255-1.14 4.674a8.794 8.794 0 01-3.192 3.344c-1.342.81-2.888 1.216-4.635 1.216zm0-1.064c1.444 0 2.76-.367 3.951-1.102a7.69 7.69 0 002.775-2.926c.683-1.241 1.025-2.597 1.025-4.066a8.212 8.212 0 00-1.025-4.028 7.903 7.903 0 00-2.813-2.964c-1.19-.735-2.508-1.102-3.952-1.102s-2.773.38-3.99 1.14a8.205 8.205 0 00-2.85 2.964 8.212 8.212 0 00-1.026 4.028c0 1.444.343 2.787 1.026 4.028a8.3 8.3 0 002.85 2.926c1.217.735 2.56 1.102 4.029 1.102zM96.983 23.9h1.216v3.952c.507-1.241 1.241-2.217 2.204-2.926a5.595 5.595 0 013.344-1.064c.785 0 1.583.165 2.394.494v1.406a3.987 3.987 0 00-2.47-.836c-.912 0-1.799.279-2.66.836-.836.557-1.52 1.305-2.052 2.242a6.22 6.22 0 00-.76 3.002V41h-1.216V23.9zM112.575 12.576h1.216v17.252l6.764-5.928h1.558l-7.828 6.84L124.089 41h-1.634l-8.664-9.12V41h-1.216V12.576z"/></g></g></svg>