<svg width="218" height="54" viewBox="0 0 218 54" fill="none" xmlns="http://www.w3.org/2000/svg"><g id="tab-contact"><rect id="Rectangle 13" x=".5" y=".5" width="217" height="53" rx="26.5" stroke="#E1DCC1"/><path id="Contact" d="M52.477 41.76c-2.66 0-5.104-.646-7.334-1.938-2.229-1.317-4.002-3.116-5.32-5.396-1.292-2.305-1.938-4.89-1.938-7.752 0-2.761.672-5.282 2.014-7.562 1.368-2.28 3.18-4.079 5.434-5.396 2.28-1.317 4.7-1.976 7.258-1.976 1.774 0 3.18.165 4.218.494 1.039.304 2.242.849 3.61 1.634v1.406c-1.292-.887-2.495-1.507-3.61-1.862-1.089-.38-2.457-.57-4.104-.57-2.508 0-4.8.646-6.878 1.938-2.052 1.267-3.686 2.977-4.902 5.13a13.858 13.858 0 00-1.786 6.878c0 2.483.608 4.788 1.824 6.916 1.216 2.128 2.825 3.825 4.826 5.092 2.027 1.241 4.206 1.862 6.536 1.862 1.672 0 3.129-.19 4.37-.57 1.242-.405 2.483-1.026 3.724-1.862v1.406a13.889 13.889 0 01-3.762 1.596c-1.266.355-2.66.532-4.18.532zm23.545-.152c-1.723 0-3.28-.418-4.674-1.254a9.289 9.289 0 01-3.268-3.382 9.341 9.341 0 01-1.178-4.598c0-1.621.393-3.129 1.178-4.522a9.089 9.089 0 013.268-3.306c1.393-.836 2.939-1.254 4.636-1.254 1.672 0 3.192.418 4.56 1.254a8.712 8.712 0 013.268 3.306 9.057 9.057 0 011.178 4.522c0 1.697-.38 3.255-1.14 4.674a8.794 8.794 0 01-3.192 3.344c-1.343.81-2.888 1.216-4.636 1.216zm0-1.064c1.444 0 2.761-.367 3.952-1.102a7.69 7.69 0 002.774-2.926c.684-1.241 1.026-2.597 1.026-4.066a8.212 8.212 0 00-1.026-4.028 7.903 7.903 0 00-2.812-2.964c-1.19-.735-2.508-1.102-3.952-1.102s-2.774.38-3.99 1.14a8.205 8.205 0 00-2.85 2.964 8.212 8.212 0 00-1.026 4.028c0 1.444.342 2.787 1.026 4.028a8.3 8.3 0 002.85 2.926c1.216.735 2.559 1.102 4.028 1.102zM91.832 23.9h1.215v3.8c.558-1.267 1.508-2.28 2.85-3.04 1.343-.785 2.825-1.178 4.446-1.178 2.103 0 3.762.671 4.978 2.014 1.242 1.317 1.862 3.167 1.862 5.548V41h-1.216v-9.956c0-2.052-.506-3.648-1.52-4.788-.988-1.14-2.381-1.71-4.18-1.71a7.495 7.495 0 00-3.648.912 6.915 6.915 0 00-2.622 2.432c-.633 1.039-.95 2.217-.95 3.534V41h-1.216V23.9zm29.688 17.328c-1.875 0-3.433-.57-4.674-1.71-1.216-1.14-1.824-2.71-1.824-4.712V17.022h1.216V23.9h5.244v1.064h-5.244v9.842c0 1.672.494 2.99 1.482 3.952 1.013.937 2.28 1.406 3.8 1.406v1.064zm14.672.19a8.84 8.84 0 01-4.522-1.216 9.093 9.093 0 01-3.306-3.268 8.775 8.775 0 01-1.216-4.484c0-1.596.406-3.078 1.216-4.446a9.003 9.003 0 013.306-3.306 8.84 8.84 0 014.522-1.216c1.647 0 3.205.443 4.674 1.33 1.47.861 2.496 1.989 3.078 3.382V23.9h1.216V41h-1.216v-4.256c-.684 1.419-1.748 2.559-3.192 3.42a8.828 8.828 0 01-4.56 1.254zm.076-1.064a7.435 7.435 0 003.876-1.064 8.076 8.076 0 002.812-2.888 7.701 7.701 0 001.064-3.952 7.632 7.632 0 00-1.064-3.914 7.982 7.982 0 00-2.85-2.888 7.242 7.242 0 00-3.876-1.102 7.44 7.44 0 00-3.914 1.102 8.635 8.635 0 00-2.888 2.926 7.642 7.642 0 00-1.064 3.914c0 1.393.355 2.698 1.064 3.914a8.63 8.63 0 002.926 2.888 7.64 7.64 0 003.914 1.064zm25.165 1.14c-1.647 0-3.167-.393-4.56-1.178a8.875 8.875 0 01-3.268-3.23c-.811-1.368-1.216-2.913-1.216-4.636 0-1.596.405-3.065 1.216-4.408a9.078 9.078 0 013.306-3.268c1.418-.81 2.976-1.216 4.674-1.216 1.418 0 2.634.228 3.648.684 1.013.456 2.001 1.165 2.964 2.128v2.052c-.836-1.241-1.774-2.179-2.812-2.812-1.014-.659-2.28-.988-3.8-.988-1.394 0-2.711.367-3.952 1.102a8.189 8.189 0 00-2.926 2.888 7.436 7.436 0 00-1.102 3.914c0 1.52.354 2.888 1.064 4.104a7.773 7.773 0 002.85 2.812 8.09 8.09 0 003.914.988c2.837 0 5.092-1.28 6.764-3.838v2.052c-.912.963-1.926 1.685-3.04 2.166-1.09.456-2.331.684-3.724.684zm19.665-.266c-1.874 0-3.432-.57-4.674-1.71-1.216-1.14-1.824-2.71-1.824-4.712V17.022h1.216V23.9h5.244v1.064h-5.244v9.842c0 1.672.494 2.99 1.482 3.952 1.014.937 2.28 1.406 3.8 1.406v1.064z" fill="#E1DCC1"/></g></svg>