<svg viewBox="0 0 92 30" fill="none" xmlns="http://www.w3.org/2000/svg">
    <g id="Work" fill="#E1DCC1">
        <path
            d="M25.118 29.494l-6.004-13.946-6.08 13.946L.532.5h1.33l11.21 25.916 5.396-12.388L12.616.5h1.292l5.32 12.274L24.586.5h1.178l-5.928 13.68 5.358 12.35L36.442.5h1.33L25.118 29.494zM48.173 29.608c-1.722 0-3.28-.418-4.674-1.254a9.289 9.289 0 01-3.268-3.382 9.341 9.341 0 01-1.178-4.598c0-1.621.393-3.129 1.178-4.522a9.089 9.089 0 013.268-3.306c1.394-.836 2.94-1.254 4.636-1.254 1.672 0 3.193.418 4.56 1.254a8.712 8.712 0 013.269 3.306 9.057 9.057 0 011.178 4.522c0 1.697-.38 3.255-1.14 4.674a8.794 8.794 0 01-3.193 3.344c-1.342.81-2.887 1.216-4.636 1.216zm0-1.064c1.444 0 2.762-.367 3.953-1.102a7.69 7.69 0 002.774-2.926c.684-1.241 1.026-2.597 1.026-4.066a8.212 8.212 0 00-1.026-4.028 7.903 7.903 0 00-2.813-2.964c-1.19-.735-2.508-1.102-3.952-1.102s-2.773.38-3.99 1.14a8.205 8.205 0 00-2.85 2.964 8.212 8.212 0 00-1.026 4.028c0 1.444.343 2.787 1.026 4.028a8.3 8.3 0 002.85 2.926c1.216.735 2.56 1.102 4.028 1.102zM63.983 11.9h1.216v3.952c.507-1.241 1.241-2.217 2.204-2.926a5.594 5.594 0 013.344-1.064c.785 0 1.583.165 2.394.494v1.406a3.986 3.986 0 00-2.47-.836c-.912 0-1.799.279-2.66.836-.836.557-1.52 1.305-2.052 2.242a6.22 6.22 0 00-.76 3.002V29h-1.216V11.9zM79.575.576h1.216v17.252l6.764-5.928h1.558l-7.828 6.84L91.089 29h-1.634l-8.664-9.12V29h-1.216V.576z" />
    </g>
</svg>